<?xml version="1.0" encoding="utf-8"?>
<!-- Generator: Adobe Illustrator 27.5.0, SVG Export Plug-In . SVG Version: 6.00 Build 0)  -->
<svg version="1.1" id="Layer_1" xmlns="http://www.w3.org/2000/svg" xmlns:xlink="http://www.w3.org/1999/xlink" x="0px" y="0px"
	 viewBox="0 0 3330 260" enable-background="new 0 0 3330 260" xml:space="preserve">
<path d="M480,105h28.28638l18.85748,54.71768c4.48254,13.44768,10.04706,38.64253,10.04706,38.64253h0.46368
	c0,0,5.56451-25.04039,9.89246-38.64253L566.09546,105H595v115h-19.93945v-59.97311c0-12.5202,1.39105-35.86022,1.39105-35.86022
	h-0.30908c0,0-4.79163,21.17611-8.50128,32.61422L545.84686,220h-17.31183l-21.94888-63.21912
	c-3.70969-11.43811-8.50143-32.61422-8.50143-32.61422h-0.30908c0,0,1.39114,23.34002,1.39114,35.86022V220H480V105z
	 M639.0528,222.00945c-16.07526,0-28.13165-8.34685-28.13165-24.4221c0-18.70287,14.22034-23.18542,33.85077-25.50407
	c13.60217-1.70023,20.40326-3.86415,20.40326-11.28351c0-7.11028-4.94623-11.90192-14.83875-11.90192
	c-10.97443,0-16.38446,5.10085-16.84814,13.29295h-18.54834c0.61823-14.06583,11.74725-26.8951,35.24188-26.8951
	c9.42883,0,16.69354,1.39116,22.10352,4.79164c7.72852,4.63715,11.74731,12.52019,11.74731,23.49461v43.43417
	c0,6.80107,1.23651,10.35616,3.09137,11.59271V220h-19.01208c-1.23657-1.85484-2.31848-5.10083-2.78217-10.66536h-0.3092
	C659.61066,216.5994,652.19128,222.00945,639.0528,222.00945z M665.63885,190.0135v-12.21112
	c-3.86432,2.47313-10.04712,4.17336-16.07526,5.40993c-12.05652,2.31863-19.01208,4.79175-19.01208,13.91135
	c0,8.81052,6.64648,11.43823,14.2204,11.43823C658.21948,208.56189,665.63885,199.28757,665.63885,190.0135z M696.86176,194.65054
	h18.85748c1.54578,9.89247,9.11969,14.06583,19.63049,14.06583c10.81982,0,15.92065-4.63704,15.92065-11.28351
	c0-8.19225-8.34686-9.73801-21.33057-12.21112c-15.45715-3.0914-30.14124-6.64647-30.14124-25.34946
	c0-15.61147,13.29303-24.57658,32.61432-24.57658c21.94885,0,32.92328,9.89247,34.93274,24.2675h-18.703
	c-1.39099-7.11028-6.64648-10.97455-16.38434-10.97455c-9.11969,0-13.91132,4.17348-13.91132,9.89247
	c0,7.26488,8.50128,8.65591,21.02148,10.97455c15.61157,2.9368,31.06854,6.64648,31.06854,26.74063
	c0,17.31183-14.83868,26.43141-35.24188,26.43141C711.7005,222.62772,698.09833,211.34409,696.86176,194.65054z
	 M779.70892,194.65054h18.8576c1.54559,9.89247,9.11957,14.06583,19.63031,14.06583c10.81982,0,15.92072-4.63704,15.92072-11.28351
	c0-8.19225-8.34674-9.73801-21.33075-12.21112c-15.45685-3.0914-30.14111-6.64647-30.14111-25.34946
	c0-15.61147,13.29309-24.57658,32.61426-24.57658c21.94897,0,32.9234,9.89247,34.93286,24.2675h-18.703
	c-1.39117-7.11028-6.64648-10.97455-16.38434-10.97455c-9.11963,0-13.91138,4.17348-13.91138,9.89247
	c0,7.26488,8.50146,8.65591,21.02155,10.97455c15.61157,2.9368,31.06854,6.64648,31.06854,26.74063
	c0,17.31183-14.83868,26.43141-35.24194,26.43141C794.54761,222.62772,780.9455,211.34409,779.70892,194.65054z
	 M891.46222,222.00945c-16.07532,0-28.13184-8.34685-28.13184-24.4221c0-18.70287,14.22058-23.18542,33.85101-25.50407
	c13.60211-1.70023,20.40308-3.86415,20.40308-11.28351c0-7.11028-4.94623-11.90192-14.83868-11.90192
	c-10.97449,0-16.38446,5.10085-16.84808,13.29295h-18.5484c0.61829-14.06583,11.74731-26.8951,35.24188-26.8951
	c9.42889,0,16.69366,1.39116,22.10345,4.79164c7.72852,4.63715,11.74744,12.52019,11.74744,23.49461v43.43417
	c0,6.80107,1.23657,10.35616,3.09125,11.59271V220h-19.0119c-1.23657-1.85484-2.31854-5.10083-2.78235-10.66536h-0.3092
	C912.02008,216.5994,904.60071,222.00945,891.46222,222.00945z M918.04828,190.0135v-12.21112
	c-3.86426,2.47313-10.04706,4.17336-16.07526,5.40993c-12.05646,2.31863-19.01215,4.79175-19.01215,13.91135
	c0,8.81052,6.64648,11.43823,14.22052,11.43823C910.62891,208.56189,918.04828,199.28757,918.04828,190.0135z M950.35315,178.88448
	c0-24.57671,16.22992-43.58878,41.57922-43.58878c21.02173,0,34.3147,11.90192,37.25134,29.67741h-19.1665
	c-1.85498-8.9651-8.03778-14.68411-17.93024-14.68411c-14.37488,0-21.79425,11.90179-21.79425,28.59547
	c0,16.22974,7.41937,28.28625,21.79425,28.28625c10.82007,0,17.31183-6.3374,18.39404-17.15723h19.16656
	c-1.23657,19.16655-15.30255,32.45961-37.40601,32.45961C966.73767,222.47311,950.35315,203.30646,950.35315,178.88448z
	 M1061.79639,149.36153h0.46375c5.56445-8.81039,13.91113-14.06583,25.50403-14.06583c17.77563,0,28.4408,10.97443,28.4408,28.75006
	V220h-19.63025v-52.70836c0-9.73788-5.71899-15.76607-15.76611-15.76607c-10.97449,0-18.703,8.34671-18.703,20.09402V220h-19.63037
	V105h19.63037v30.91399C1062.10559,138.2325,1061.95105,144.56989,1061.79639,149.36153z M1161.49292,222.16405
	c-18.08459,0-28.59546-11.28365-28.59546-29.05927v-55.64517h19.63037v52.86298c0,9.73787,5.56458,15.45699,15.45703,15.45699
	c11.12903,0,18.23926-8.50131,18.23926-19.93954v-48.38042h19.47571V220h-19.01196v-11.74731h-0.3092
	C1180.35046,217.2178,1173.08569,222.16405,1161.49292,222.16405z M1218.37415,194.65054h18.85754
	c1.54553,9.89247,9.11951,14.06583,19.63037,14.06583c10.81982,0,15.92065-4.63704,15.92065-11.28351
	c0-8.19225-8.34668-9.73801-21.33069-12.21112c-15.45691-3.0914-30.14099-6.64647-30.14099-25.34946
	c0-15.61147,13.29297-24.57658,32.61414-24.57658c21.94885,0,32.92346,9.89247,34.93286,24.2675h-18.703
	c-1.39111-7.11028-6.64661-10.97455-16.38452-10.97455c-9.11938,0-13.91101,4.17348-13.91101,9.89247
	c0,7.26488,8.50122,8.65591,21.02148,10.97455c15.61145,2.9368,31.0686,6.64648,31.0686,26.74063
	c0,17.31183-14.83875,26.43141-35.24207,26.43141C1233.21289,222.62772,1219.61072,211.34409,1218.37415,194.65054z
	 M1302.3031,178.88448c0-24.57671,16.53906-43.58878,40.96106-43.58878c12.0564,0,21.48535,4.17336,28.44092,11.59271
	c8.03748,8.50143,11.90173,21.48518,11.74744,36.78769h-61.67358c1.39111,14.22043,9.11963,23.80371,22.7218,23.80371
	c9.42871,0,15.61145-4.01875,18.23914-10.81984h19.16687c-4.01892,14.83871-17.31189,25.81314-37.56055,25.81314
	C1318.06921,222.47311,1302.3031,203.30646,1302.3031,178.88448z M1322.08801,171.31052h41.11572
	c-0.77307-13.60216-8.03772-21.79439-19.93958-21.79439C1330.43481,149.51613,1323.78845,158.32664,1322.08801,171.31052z
	 M1425.8042,220.77287c-13.29297,0-22.41248-4.79163-22.41248-19.32126v-50.54433h-12.67468v-13.44768h12.67468v-26.27682h19.32117
	v26.27682h16.53882v13.44768h-16.53882v46.21637c0,6.0282,3.24585,7.72856,8.81055,7.72856c2.00928,0,4.79163-0.3092,6.3374-0.61841
	h0.92737v15.30251C1435.54236,220.1546,1431.05969,220.77287,1425.8042,220.77287z M1481.60327,220.77287
	c-13.29297,0-22.41272-4.79163-22.41272-19.32126v-50.54433h-12.67456v-13.44768h12.67456v-26.27682h19.32141v26.27682h16.53906
	v13.44768h-16.53906v46.21637c0,6.0282,3.24585,7.72856,8.81055,7.72856c2.00928,0,4.79163-0.3092,6.3374-0.61841h0.92737v15.30251
	C1491.34106,220.1546,1486.85864,220.77287,1481.60327,220.77287z M1504.3219,194.65054h18.85767
	c1.54541,9.89247,9.11938,14.06583,19.63025,14.06583c10.81982,0,15.92078-4.63704,15.92078-11.28351
	c0-8.19225-8.3468-9.73801-21.33081-12.21112c-15.45679-3.0914-30.14099-6.64647-30.14099-25.34946
	c0-15.61147,13.29297-24.57658,32.61414-24.57658c21.94885,0,32.92358,9.89247,34.93286,24.2675h-18.703
	c-1.39111-7.11028-6.64661-10.97455-16.3844-10.97455c-9.11951,0-13.91113,4.17348-13.91113,9.89247
	c0,7.26488,8.50134,8.65591,21.02148,10.97455c15.61145,2.9368,31.0686,6.64648,31.0686,26.74063
	c0,17.31183-14.83875,26.43141-35.24207,26.43141C1519.16064,222.62772,1505.55847,211.34409,1504.3219,194.65054z M1628.28491,105
	h21.48523v115h-21.48523V105z M1688.87646,137.45961v12.05652h0.46387c5.41003-9.1196,14.06567-14.22043,25.65845-14.22043
	c17.77563,0,28.44092,10.97443,28.44092,28.75006V220h-19.63037v-52.70836c0-9.73788-5.71899-15.76607-15.76599-15.76607
	c-10.97449,0-18.703,8.34671-18.703,20.09402V220h-19.63037v-82.54039H1688.87646z M1755.49536,194.65054h18.85754
	c1.54578,9.89247,9.11951,14.06583,19.63037,14.06583c10.81982,0,15.92065-4.63704,15.92065-11.28351
	c0-8.19225-8.34668-9.73801-21.33069-12.21112c-15.45691-3.0914-30.14099-6.64647-30.14099-25.34946
	c0-15.61147,13.29297-24.57658,32.61414-24.57658c21.9491,0,32.92358,9.89247,34.93286,24.2675h-18.703
	c-1.39111-7.11028-6.64636-10.97455-16.38452-10.97455c-9.11938,0-13.91101,4.17348-13.91101,9.89247
	c0,7.26488,8.50122,8.65591,21.02148,10.97455c15.61145,2.9368,31.06836,6.64648,31.06836,26.74063
	c0,17.31183-14.83875,26.43141-35.24182,26.43141C1770.33411,222.62772,1756.73193,211.34409,1755.49536,194.65054z
	 M1869.87598,220.77287c-13.29297,0-22.41272-4.79163-22.41272-19.32126v-50.54433h-12.67444v-13.44768h12.67444v-26.27682h19.32141
	v26.27682h16.53906v13.44768h-16.53906v46.21637c0,6.0282,3.24597,7.72856,8.81055,7.72856c2.00928,0,4.79163-0.3092,6.3374-0.61841
	h0.92737v15.30251C1879.61389,220.1546,1875.13147,220.77287,1869.87598,220.77287z M1896.76965,105h20.09412v19.01207h-20.09412
	V105z M1897.07886,137.45961h19.63037V220h-19.63037V137.45961z M1964.77991,220.77287
	c-13.29297,0-22.41248-4.79163-22.41248-19.32126v-50.54433h-12.6748v-13.44768h12.6748v-26.27682h19.32117v26.27682h16.53882
	v13.44768h-16.53882v46.21637c0,6.0282,3.24585,7.72856,8.81055,7.72856c2.00928,0,4.79163-0.3092,6.3374-0.61841h0.92737v15.30251
	C1974.51794,220.1546,1970.03528,220.77287,1964.77991,220.77287z M2019.95984,222.16405
	c-18.08459,0-28.59546-11.28365-28.59546-29.05927v-55.64517h19.63025v52.86298c0,9.73787,5.5647,15.45699,15.45715,15.45699
	c11.12903,0,18.23914-8.50131,18.23914-19.93954v-48.38042h19.47583V220h-19.01196v-11.74731h-0.3092
	C2038.81738,217.2178,2031.55261,222.16405,2019.95984,222.16405z M2112.23755,220.77287
	c-13.29297,0-22.4126-4.79163-22.4126-19.32126v-50.54433h-12.6748v-13.44768h12.6748v-26.27682h19.32129v26.27682h16.53882
	v13.44768h-16.53882v46.21637c0,6.0282,3.24585,7.72856,8.81055,7.72856c2.00928,0,4.7915-0.3092,6.3374-0.61841h0.92725v15.30251
	C2121.97559,220.1546,2117.49292,220.77287,2112.23755,220.77287z M2135.26685,178.88448
	c0-24.57671,16.53906-43.58878,40.96094-43.58878c12.0564,0,21.48535,4.17336,28.44092,11.59271
	c8.0376,8.50143,11.90186,21.48518,11.74756,36.78769h-61.67383c1.39136,14.22043,9.11987,23.80371,22.72192,23.80371
	c9.42871,0,15.61157-4.01875,18.23926-10.81984h19.16675c-4.0188,14.83871-17.31177,25.81314-37.56055,25.81314
	C2151.03296,222.47311,2135.26685,203.30646,2135.26685,178.88448z M2155.05176,171.31052h41.11572
	c-0.77319-13.60216-8.03784-21.79439-19.9397-21.79439C2163.39844,149.51613,2156.7522,158.32664,2155.05176,171.31052z
	 M2260.77539,178.88448c0-24.57671,16.53906-43.58878,42.19775-43.58878c25.65845,0,41.88843,19.01207,41.88843,43.58878
	c0,24.42198-16.22998,43.58864-41.88843,43.58864C2277.31445,222.47311,2260.77539,203.30646,2260.77539,178.88448z
	 M2324.92188,178.88448c0-16.69368-7.72827-29.05927-22.10327-29.05927c-14.52954,0-22.10352,12.36559-22.10352,29.05927
	c0,16.53894,7.57397,28.74994,22.10352,28.74994C2317.1936,207.63441,2324.92188,195.42342,2324.92188,178.88448z
	 M2364.64624,151.06177h-12.6748v-13.60216h12.6748v-9.11958c0-8.34672,2.00928-14.06583,6.33716-17.93011
	c4.79175-4.17336,12.21118-5.87359,21.63989-5.71899c2.62769,0,5.71899,0.15448,8.81055,0.46368v14.6841
	c-12.98413-0.61828-17.15723,0.77288-17.15723,9.73788v7.88303h17.00269v13.60216h-17.00269V220h-19.63037V151.06177z
	 M2481.0354,123.39378h-35.86011V105h93.36035v18.39378h-36.01489V220h-21.48535V123.39378z M2529.8811,178.88448
	c0-24.57671,16.53906-43.58878,40.96094-43.58878c12.0564,0,21.48535,4.17336,28.44092,11.59271
	c8.03784,8.50143,11.90186,21.48518,11.74731,36.78769h-61.67334c1.39111,14.22043,9.11963,23.80371,22.72168,23.80371
	c9.42871,0,15.61157-4.01875,18.23926-10.81984h19.16675c-4.0188,14.83871-17.31177,25.81314-37.56055,25.81314
	C2545.64722,222.47311,2529.8811,203.30646,2529.8811,178.88448z M2549.66602,171.31052h41.11572
	c-0.77271-13.60216-8.03784-21.79439-19.9397-21.79439C2558.0127,149.51613,2551.36646,158.32664,2549.66602,171.31052z
	 M2620.61279,178.88448c0-24.57671,16.22974-43.58878,41.5791-43.58878c21.02173,0,34.3147,11.90192,37.25146,29.67741h-19.1665
	c-1.85498-8.9651-8.03784-14.68411-17.93042-14.68411c-14.37476,0-21.79419,11.90179-21.79419,28.59547
	c0,16.22974,7.41943,28.28625,21.79419,28.28625c10.82007,0,17.31201-6.3374,18.39404-17.15723h19.16675
	c-1.23657,19.16655-15.30273,32.45961-37.40601,32.45961C2636.99731,222.47311,2620.61279,203.30646,2620.61279,178.88448z
	 M2732.05591,149.36153h0.46387c5.56445-8.81039,13.91113-14.06583,25.50391-14.06583
	c17.77563,0,28.44092,10.97443,28.44092,28.75006V220h-19.63037v-52.70836c0-9.73788-5.71899-15.76607-15.76611-15.76607
	c-10.97437,0-18.70288,8.34671-18.70288,20.09402V220h-19.63037V105h19.63037v30.91399
	C2732.36523,138.2325,2732.21045,144.56989,2732.05591,149.36153z M2822.94214,137.45961v12.05652h0.46387
	c5.40991-9.1196,14.06567-14.22043,25.65845-14.22043c17.77563,0,28.44092,10.97443,28.44092,28.75006V220H2857.875v-52.70836
	c0-9.73788-5.71899-15.76607-15.76611-15.76607c-10.97437,0-18.70288,8.34671-18.70288,20.09402V220h-19.63037v-82.54039H2822.94214
	z M2890.64307,178.88448c0-24.57671,16.53906-43.58878,42.19751-43.58878c25.65869,0,41.88843,19.01207,41.88843,43.58878
	c0,24.42198-16.22974,43.58864-41.88843,43.58864C2907.18213,222.47311,2890.64307,203.30646,2890.64307,178.88448z
	 M2954.78955,178.88448c0-16.69368-7.72827-29.05927-22.10352-29.05927c-14.52954,0-22.10352,12.36559-22.10352,29.05927
	c0,16.53894,7.57397,28.74994,22.10352,28.74994C2947.06128,207.63441,2954.78955,195.42342,2954.78955,178.88448z M2988.79346,105
	h19.78491v115h-19.78491V105z M3022.64307,178.88448c0-24.57671,16.53857-43.58878,42.19727-43.58878
	s41.88867,19.01207,41.88867,43.58878c0,24.42198-16.22998,43.58864-41.88867,43.58864S3022.64307,203.30646,3022.64307,178.88448z
	 M3086.78931,178.88448c0-16.69368-7.72876-29.05927-22.10327-29.05927c-14.53003,0-22.10376,12.36559-22.10376,29.05927
	c0,16.53894,7.57373,28.74994,22.10376,28.74994C3079.06055,207.63441,3086.78931,195.42342,3086.78931,178.88448z
	 M3117.23828,175.79295c0-24.73119,15.14795-40.49725,34.93286-40.49725c11.59302,0,19.47583,4.01888,24.42212,12.82927h0.30908
	v-10.66536h19.01221v77.13048c0,11.59271-3.86426,20.09402-10.35596,25.81314c-6.80151,5.71912-16.84814,8.34671-28.44116,8.34671
	c-22.10376,0-35.70557-8.965-37.71509-24.57658h18.85791c1.39111,6.80107,7.72852,10.20168,18.5481,10.20168
	c13.13818,0,19.9397-6.1828,19.9397-18.0847v-2.00945c0-4.48244,0.30933-8.65591,0.46362-11.43811h-0.61841
	c-5.10059,8.19223-12.36572,12.67467-23.34009,12.67467C3133.15918,215.51744,3117.23828,200.36966,3117.23828,175.79295z
	 M3177.52075,175.17479c0-14.68423-6.80078-24.57671-20.8667-24.57671c-12.82983,0-19.93994,9.73801-19.93994,24.88579
	s7.26514,24.88579,20.09424,24.88579C3171.80176,200.36966,3177.52075,189.5497,3177.52075,175.17479z M3213.84497,247.2043
	v-15.92067h1.08179c0.77271,0.46368,6.18311,0.77289,8.19214,0.77289c6.64673,0,10.35596-2.47313,12.0564-9.11972
	c0-1.54564,0.77319-9.2742-0.927-13.75674l-28.44116-71.72044h20.86694l13.60229,38.33334
	c3.55518,10.20168,6.95532,25.65866,6.95532,25.65866h0.30933c0,0,3.70972-15.61159,7.11011-25.65866l13.13867-38.33334h19.78516
	l-31.99634,87.17755c-6.80078,18.23918-13.91113,23.49461-27.35864,23.49461
	C3225.74683,248.13177,3215.23608,247.66798,3213.84497,247.2043z M235,40.00001h40v40h-40V40.00001z M235,220h40V105h-40V220z
	 M40,220h40V40H40V220z M300,80.03375h100v-40H300V80.03375z M170,220h40V40h-40V220z M300,220h40V105h-40V220z M105,180h40V40h-40
	V180z"/>
</svg>
