<svg xmlns="http://www.w3.org/2000/svg" height="48px" viewBox="0 0 135 48" fill="none"><path fill="#2D093A" style="transition:fill 150ms linear" d="M 53.781 12.04 h 5.167 l 7.768 19.108 l 7.629 -19.107 h 5.063 v 24.274 h -3.85 V 18.456 l -7.282 17.859 h -3.363 L 57.63 18.456 v 17.859 h -3.849 V 12.04 Z M 90.476 36.523 c -1.78 0 -3.364 -0.37 -4.75 -1.11 a 8.142 8.142 0 0 1 -3.19 -3.19 c -0.74 -1.387 -1.11 -2.982 -1.11 -4.786 c 0 -1.78 0.37 -3.352 1.11 -4.716 a 8.08 8.08 0 0 1 3.19 -3.225 c 1.386 -0.762 2.97 -1.144 4.75 -1.144 c 1.78 0 3.352 0.381 4.716 1.144 a 7.797 7.797 0 0 1 3.19 3.225 c 0.763 1.364 1.145 2.936 1.145 4.716 c 0 1.804 -0.382 3.399 -1.145 4.786 c -0.74 1.364 -1.803 2.427 -3.19 3.19 c -1.364 0.74 -2.936 1.11 -4.716 1.11 Z m 0 -3.19 c 1.572 0 2.832 -0.544 3.78 -1.63 c 0.97 -1.11 1.456 -2.532 1.456 -4.266 c 0 -1.733 -0.485 -3.144 -1.456 -4.23 c -0.948 -1.11 -2.208 -1.665 -3.78 -1.665 c -1.572 0 -2.832 0.555 -3.78 1.665 c -0.947 1.086 -1.421 2.497 -1.421 4.23 c 0 1.734 0.474 3.156 1.421 4.266 c 0.948 1.086 2.208 1.63 3.78 1.63 Z M 110.653 18.352 c 1.618 0 3.063 0.37 4.334 1.11 c 1.272 0.716 2.266 1.757 2.983 3.12 c 0.716 1.365 1.075 2.983 1.075 4.855 c 0 1.78 -0.359 3.364 -1.075 4.751 c -0.717 1.364 -1.711 2.428 -2.983 3.19 c -1.271 0.763 -2.716 1.145 -4.334 1.145 c -1.318 0 -2.462 -0.243 -3.433 -0.728 a 6.535 6.535 0 0 1 -2.358 -2.046 l -0.451 2.566 h -3.26 V 12.04 h 3.745 v 9.155 c 1.411 -1.896 3.329 -2.844 5.757 -2.844 Z m -0.624 15.015 c 1.549 0 2.797 -0.543 3.745 -1.63 c 0.971 -1.11 1.456 -2.543 1.456 -4.3 c 0 -1.733 -0.485 -3.144 -1.456 -4.23 c -0.948 -1.11 -2.196 -1.665 -3.745 -1.665 s -2.798 0.544 -3.746 1.63 c -0.947 1.087 -1.421 2.497 -1.421 4.23 c 0 1.758 0.474 3.191 1.421 4.3 c 0.948 1.11 2.197 1.665 3.746 1.665 Z M 122.531 11.451 c 0.647 0 1.191 0.22 1.63 0.66 c 0.439 0.415 0.659 0.947 0.659 1.594 c 0 0.648 -0.22 1.19 -0.659 1.63 c -0.439 0.416 -0.983 0.624 -1.63 0.624 c -0.647 0 -1.191 -0.208 -1.63 -0.624 c -0.439 -0.44 -0.659 -0.982 -0.659 -1.63 c 0 -0.647 0.22 -1.179 0.659 -1.595 c 0.439 -0.44 0.983 -0.659 1.63 -0.659 Z m -1.872 7.11 h 3.745 v 17.754 h -3.745 V 18.56 Z Z Z Z v 0.694"></path><path fill="#2D093A" style="transition:fill 150ms linear" fill-rule="evenodd" d="M19.913 30.907c.783-.783 2.121-.229 2.121.878V43.5c1.33.136 2.651.133 3.947.001v-11.72c0-1.107 1.338-1.66 2.12-.878l8.285 8.284A19.578 19.578 0 0 0 39.18 36.4l-8.286-8.286c-.783-.783-.229-2.12.878-2.12h11.725c.138-1.33.137-2.651.007-3.947H31.773c-1.107 0-1.662-1.338-.879-2.121l8.302-8.302A19.58 19.58 0 0 0 36.41 8.83l-8.31 8.309c-.782.782-2.12.228-2.12-.879V4.502a19.457 19.457 0 0 0-3.947-.004v11.757c0 1.107-1.338 1.662-2.12.879l-8.312-8.311a19.578 19.578 0 0 0-2.791 2.789l8.314 8.314c.782.783.228 2.12-.879 2.12H4.5c-.135 1.33-.131 2.652.002 3.947h11.746c1.106 0 1.66 1.338.878 2.121l-8.294 8.294a19.58 19.58 0 0 0 2.791 2.79l8.291-8.291Zm4.031-15.786.818 3.284a6.474 6.474 0 0 0 4.718 4.717l3.284.818-3.284.818a6.474 6.474 0 0 0-4.718 4.718l-.818 3.284-.818-3.284a6.474 6.474 0 0 0-4.717-4.718l-3.284-.818 3.284-.818a6.474 6.474 0 0 0 4.717-4.717l.818-3.284Z" clip-rule="evenodd"></path></svg>