<?xml version="1.0" encoding="utf-8"?>
<!-- Generator: Adobe Illustrator 27.2.0, SVG Export Plug-In . SVG Version: 6.00 Build 0)  -->
<svg version="1.1" id="Layer_1" xmlns="http://www.w3.org/2000/svg" xmlns:xlink="http://www.w3.org/1999/xlink" x="0px" y="0px"
	 viewBox="0 0 151 34" style="enable-background:new 0 0 151 34;" xml:space="preserve">
<style type="text/css">
	.st0{fill:#DB3D3D;}
	.st1{fill:#FFFFFF;}
</style>
<g>
	<g>
		<path class="st0" d="M149.9,0H25.8c-0.6,0-1.1,0.3-1.1,0.8c0,0.5,0.6,0.8,1.1,0.8h124.1c0.6,0,1.1-0.3,1.1-0.8
			C151,0.3,150.5,0,149.9,0z"/>
		<path class="st0" d="M149.8,32.4H38.4c-0.6,0-1.1,0.3-1.1,0.8c0,0.5,0.6,0.8,1.1,0.8h111.3c0.6,0,1.1-0.3,1.1-0.8
			C150.9,32.7,150.4,32.4,149.8,32.4L149.8,32.4z"/>
		<path class="st1" d="M38.9,6.1h2.5c2.5,0,4.1,1.3,4.1,3.5s-1.5,3.5-4.1,3.5h-0.6v2.1h-1.9L38.9,6.1L38.9,6.1z M41.4,11.5
			c1.5,0,2.2-0.6,2.2-1.9c0-1.2-0.7-1.9-2.2-1.9h-0.6v3.7L41.4,11.5L41.4,11.5z"/>
		<path class="st1" d="M46.6,11.9V6.1h1.9v5.7c0,1.3,0.6,1.8,1.8,1.8s1.8-0.5,1.8-1.8V6.1h1.9v5.8c0,2.3-1.6,3.4-3.7,3.4
			S46.6,14.2,46.6,11.9z"/>
		<path class="st1" d="M55.6,6.1h3.5c1.7,0,2.6,1.1,2.6,2.4c0,0.8-0.5,1.4-1.3,1.7c1.2,0.3,1.8,1.1,1.8,2.3c0,1.6-1.1,2.8-3,2.8
			h-3.7V6.1z M58.9,9.5c0.6,0,1-0.3,1-0.9c0-0.5-0.3-0.9-0.9-0.9h-1.5v1.7L58.9,9.5L58.9,9.5z M59.2,13.6c0.8,0,1.2-0.5,1.2-1.3
			c0-0.7-0.5-1.2-1.3-1.2h-1.6v2.5H59.2z"/>
		<path class="st1" d="M63.8,6.1h1.9v7.5h4.1v1.6h-6L63.8,6.1L63.8,6.1z"/>
		<path class="st1" d="M71.3,6.1h1.9v9.1h-1.9V6.1z"/>
		<path class="st1" d="M74.6,10.7C74.6,8,76.7,6,79.3,6c1.6,0,2.8,0.6,3.6,1.9l-1.4,1c-0.4-0.7-1.2-1.2-2.2-1.2
			c-1.6,0-2.7,1.3-2.7,3c0,1.7,1.1,3,2.7,3c1.2,0,1.8-0.6,2.3-1.3l1.5,1c-0.8,1.2-2,2-3.8,2C76.7,15.3,74.6,13.3,74.6,10.7z"/>
		<path class="st1" d="M89.3,6.1h1.9v9.1h-1.9V6.1z"/>
		<path class="st1" d="M95.8,11c-0.5-0.4-1.1-1.2-1.1-1.2s0.1,1,0.1,1.7v3.8h-1.7V6h0.2l4.6,4.3c0.4,0.4,1.1,1.2,1.1,1.2
			s-0.1-1-0.1-1.7V6.1h1.7v9.2h-0.2L95.8,11z"/>
		<path class="st1" d="M104.5,7.8h-2.9V6.1h7.6v1.6h-2.8v7.5h-1.9L104.5,7.8L104.5,7.8z"/>
		<path class="st1" d="M110.2,6.1h6v1.6h-4.1v2.9h3.6v1.6h-3.6v1.3h4.3v1.6h-6.2V6.1L110.2,6.1z"/>
		<path class="st1" d="M124.9,15.2h-2.2l-1.5-2.3c-0.2,0-0.4,0-0.5,0h-0.6v2.3h-1.9V6.1h2.5c2.5,0,4.1,1.2,4.1,3.4
			c0,1.4-0.6,2.3-1.7,2.8L124.9,15.2L124.9,15.2z M120.7,11.3c1.5,0,2.2-0.5,2.2-1.8c0-1.3-0.7-1.8-2.2-1.8h-0.6v3.6H120.7z"/>
		<path class="st1" d="M126.5,6.1h6v1.6h-4.1v2.9h3.6v1.6h-3.6v1.3h4.3v1.6h-6.2V6.1L126.5,6.1z"/>
		<path class="st1" d="M133.7,13.4l1.5-0.9c0.4,0.7,0.9,1.1,1.8,1.1c0.8,0,1.3-0.4,1.3-0.9c0-0.6-0.5-0.9-1.4-1.2l-0.5-0.2
			c-1.3-0.6-2.2-1.3-2.2-2.8c0-1.4,1.1-2.5,2.7-2.5c1.2,0,2,0.4,2.7,1.5l-1.5,0.9c-0.3-0.6-0.7-0.8-1.2-0.8s-0.9,0.3-0.9,0.8
			c0,0.6,0.3,0.8,1.1,1.1l0.5,0.2c1.6,0.7,2.5,1.4,2.5,2.9c0,1.7-1.3,2.6-3.1,2.6C135.3,15.3,134.2,14.5,133.7,13.4L133.7,13.4z"/>
		<path class="st1" d="M143,7.8h-2.6V6.1l7.1,0v1.6l-2.6,0v7.5H143V7.8z"/>
		<path class="st1" d="M39,18.8h2v7.9h4.4v1.7H39V18.8z"/>
		<path class="st1" d="M50.6,18.7h0.2l4.4,9.7h-2.1l-0.5-1.1h-3.9l-0.5,1.1h-1.9L50.6,18.7z M51.9,25.7L51.3,24
			c-0.3-0.7-0.6-1.7-0.6-1.7s-0.3,1.1-0.6,1.7l-0.7,1.7H51.9L51.9,25.7z"/>
		<path class="st1" d="M53.5,18.8h2.1l1.4,3.9c0.2,0.7,0.5,1.7,0.5,1.7s0.3-1.1,0.6-1.7l1.9-4h0.2l1.9,4c0.3,0.7,0.6,1.7,0.6,1.7
			s0.3-1.1,0.5-1.7l1.4-3.9h1.9l-3.5,9.7h-0.2l-2.2-4.6c-0.3-0.5-0.5-1.4-0.5-1.4s-0.3,0.9-0.6,1.4l-2.3,4.6H57L53.5,18.8z"/>
		<path class="st1" d="M71.5,18.8h2.7c2.7,0,4.3,1.4,4.3,3.7c0,2.3-1.6,3.7-4.3,3.7h-0.7v2.2h-2V18.8z M74.1,24.5
			c1.6,0,2.3-0.7,2.3-2c0-1.3-0.7-2-2.3-2h-0.6v4H74.1z"/>
		<path class="st1" d="M87,28.4h-2.3L83.1,26c-0.2,0-0.4,0-0.6,0h-0.7v2.4h-2v-9.6h2.7c2.7,0,4.3,1.3,4.3,3.6c0,1.5-0.7,2.5-1.9,3
			L87,28.4L87,28.4z M82.5,24.3c1.6,0,2.3-0.5,2.3-1.9c0-1.4-0.7-1.9-2.3-1.9h-0.6v3.8H82.5z"/>
		<path class="st1" d="M88,23.6c0-2.8,2.2-4.9,5-4.9c2.8,0,5,2.1,5,4.9c0,2.8-2.2,5-5,5C90.2,28.5,88,26.4,88,23.6z M95.9,23.6
			c0-1.8-1.2-3.2-2.9-3.2c-1.8,0-2.9,1.4-2.9,3.2c0,1.8,1.2,3.2,2.9,3.2C94.7,26.8,95.9,25.4,95.9,23.6z"/>
		<path class="st1" d="M98,26.7l1.6-1c0.3,0.6,0.6,1,1.3,1c0.7,0,1.1-0.3,1.1-1.2v-6.8h2v6.8c0,2.1-1.2,3-3,3
			C99.4,28.5,98.4,27.7,98,26.7L98,26.7z"/>
		<path class="st1" d="M105.9,18.8h6.4v1.7h-4.4v3.1h3.9v1.7h-3.9v1.4h4.6v1.7h-6.6V18.8z"/>
		<path class="st1" d="M113.7,23.6c0-2.9,2.2-4.9,5-4.9c1.7,0,3,0.6,3.9,2l-1.5,1.1c-0.5-0.7-1.2-1.3-2.3-1.3
			c-1.7,0-2.9,1.3-2.9,3.1s1.2,3.2,2.9,3.2c1.2,0,1.9-0.6,2.5-1.4l1.5,1.1c-0.8,1.3-2.2,2.1-4,2.1C115.9,28.5,113.7,26.4,113.7,23.6
			L113.7,23.6z"/>
		<path class="st1" d="M126,20.5h-2.7v-1.7h7.5v1.7H128v7.9h-2V20.5z"/>
		<path class="st1" d="M8.6,21.3l3.2,3.4v-2.3l-3.2-4.9V21.3L8.6,21.3z M11.7,26h-0.5c0.3-0.2,0.5-0.5,0.6-0.8l-3.2-3v2.5
			c0,0.1,0,0.2,0,0.2l3.6,2.2c0.1-0.1,0.2-0.3,0.2-0.4C12.4,26.3,12.1,26,11.7,26L11.7,26z M5.5,19.3l-3.2-3.1v5l3.2,1.9V19.3z
			 M8.7,13.1h0.6c-0.4,0.3-0.7,0.8-0.7,1.3v0.8l3.2,5.9v-6.6c0-0.5-0.3-1-0.7-1.3h0.6c0.4,0,0.7-0.3,0.7-0.7c0-0.4-0.3-0.7-0.7-0.7
			H8.7C8.3,11.7,8,12,8,12.4C8,12.8,8.3,13.1,8.7,13.1L8.7,13.1z M5.4,11.7H2.4c-0.4,0-0.7,0.3-0.7,0.7c0,0.4,0.3,0.7,0.7,0.7H3
			c-0.4,0.3-0.7,0.8-0.7,1.3v0.2L5.6,18v-3.7c0-0.5-0.3-1-0.7-1.3h0.5c0.4,0,0.7-0.3,0.7-0.7C6.1,12,5.8,11.7,5.4,11.7z M8.7,26
			C8.3,26,8,26.3,8,26.7c0,0.4,0.3,0.7,0.7,0.7h3.1c0,0,0.1,0,0.1,0L9.1,26H8.7z M5.4,26H4.9c0.4-0.3,0.6-0.8,0.6-1.3v-0.5l-3.2-1.6
			v2.1c0,0.5,0.3,1,0.6,1.3H2.4c-0.4,0-0.7,0.3-0.7,0.7c0,0.4,0.3,0.7,0.7,0.7h3.1c0.4,0,0.7-0.3,0.7-0.7C6.1,26.3,5.8,26,5.4,26
			L5.4,26z"/>
		<path class="st1" d="M25.1,17.5l-3.2,4.9v2.3l3.2-3.4V17.5z M25.1,24.7v-2.6l-3.2,3c0.1,0.4,0.3,0.7,0.6,0.9h-0.6
			c-0.4,0-0.7,0.3-0.7,0.7c0,0.2,0.1,0.3,0.1,0.4l3.7-2.1C25.1,24.9,25.1,24.8,25.1,24.7L25.1,24.7z M28.2,23.2l3.2-1.9v-5.1
			l-3.2,3.1V23.2L28.2,23.2z M25,11.7h-3.1c-0.4,0-0.7,0.3-0.7,0.7s0.3,0.7,0.7,0.7h0.6c-0.4,0.3-0.7,0.8-0.7,1.3v6.5l3.2-5.9v-0.7
			c0-0.5-0.3-1-0.7-1.3H25c0.4,0,0.7-0.3,0.7-0.7C25.7,12,25.4,11.7,25,11.7z M28.2,13.1h0.6c-0.4,0.3-0.7,0.8-0.7,1.3V18l3.2-3.4
			v-0.2c0-0.5-0.3-1-0.7-1.3h0.5c0.4,0,0.7-0.3,0.7-0.7c0-0.4-0.3-0.7-0.7-0.7h-3.1c-0.4,0-0.7,0.3-0.7,0.7
			C27.5,12.8,27.9,13.1,28.2,13.1z M25,26h-0.4l-2.8,1.3c0,0,0.1,0,0.1,0H25c0.4,0,0.7-0.3,0.7-0.7C25.7,26.3,25.4,26,25,26z
			 M31.3,26h-0.5c0.4-0.3,0.6-0.8,0.6-1.3v-2l-3.2,1.6v0.4c0,0.5,0.3,1,0.6,1.3h-0.6c-0.4,0-0.7,0.3-0.7,0.7c0,0.4,0.3,0.7,0.7,0.7
			h3.1c0.4,0,0.7-0.3,0.7-0.7C32,26.3,31.7,26,31.3,26L31.3,26z"/>
		<path class="st1" d="M0.7,10.7C0.8,10.8,1,10.9,1.3,11c4.2-0.3,11.6-0.6,15.6-0.6c4.1,0,11.4,0.2,15.6,0.5
			c0.2-0.1,0.4-0.2,0.6-0.3c0.4-0.3,0.7-0.7,0.7-1.3c0-0.8-0.6-1.3-1.2-1.5c-0.6-0.2-3-1.3-5.7-2.5c-2.7-1.2-5.8-2.6-8-3.4
			c-0.8-0.3-1.4-0.4-2-0.4c-0.6,0-1.2,0.1-2,0.4c-2.2,0.8-5.2,2.2-8,3.4C4.2,6.6,1.8,7.7,1.2,7.9C0.6,8.1,0,8.7,0,9.4
			C0,9.9,0.3,10.4,0.7,10.7z M15.5,3.9c0,0,0.5-0.2,1.3-0.2s1.3,0.2,1.3,0.2L31,8.9c-4-0.2-10.5-0.3-14.2-0.3C13,8.6,6,8.8,2.1,9
			L15.5,3.9L15.5,3.9z"/>
		<path class="st1" d="M32.1,28.2H20.2l0.5,1.6h11.9c0.4,0,0.3-0.4,0.3-0.8C33,28.5,32.6,28.2,32.1,28.2L32.1,28.2z M0.8,29
			c0,0.4-0.2,0.8,0.3,0.8h11.8l0.5-1.6H1.6C1.2,28.2,0.8,28.5,0.8,29L0.8,29z"/>
		<path class="st1" d="M0.1,31.5c0,0.4-0.2,0.8,0.3,0.8h11.8l0.5-1.6H0.9C0.4,30.7,0.1,31,0.1,31.5L0.1,31.5z M32.9,30.7H20.9
			l0.5,1.6h11.9c0.4,0,0.3-0.4,0.3-0.8C33.7,31.1,33.3,30.7,32.9,30.7L32.9,30.7z"/>
		<path class="st0" d="M19.8,19.2c0-1.5-1.4-2.6-3-2.6c-1.6,0-3,1.1-3,2.6v8.5h0.7l3.1,2.1v-2.1h2.2V19.2z M19.2,27.1h-1.7v-7.9
			c0-0.9-0.4-1.6-0.9-2c0,0,0.1,0,0.1,0c1.4,0,2.4,1,2.4,2L19.2,27.1L19.2,27.1z"/>
	</g>
</g>
</svg>
