<svg version="1.1" id="Layer_1" xmlns="http://www.w3.org/2000/svg" xmlns:xlink="http://www.w3.org/1999/xlink" x="0px" y="0px" viewBox="0 0 200 100" enable-background="new 0 0 200 100" xml:space="preserve">
<style type="text/css">
	path {fill:#FFFFFF;}
</style>
	<path d="M37.6,74.8c0,0.3-0.1,0.4-0.4,0.4h-2.5c-0.3,0-0.4-0.1-0.4-0.4v-0.7c0-1.2-0.6-1.8-1.8-1.8c-0.5,0-0.9,0.2-1.2,0.5
	c-2.2,2.2-5.3,3.2-9.4,3.2c-5.5,0-9.5-1.3-12-3.9c-2.5-2.6-3.7-6.7-3.7-12.3V39.3h9c0.3,0,0.4,0.1,0.4,0.4v20.1
	c0,3.1,0.4,5.2,1.2,6.2c0.8,1,2.5,1.5,5.1,1.5c4.1,0,6.1-2.5,6.1-7.6V39.8c0-0.3,0.1-0.4,0.4-0.4h9.3V74.8z">
	</path>
	<path d="M82.7,75.2h-4.3c-4.9,0-8.8-1.3-11.5-3.9c-2.8-2.6-4.2-5.8-4.2-9.8V48.9c0-1.5-0.8-2.3-2.4-2.3c-0.5,0-0.9,0.1-1.4,0.2
	c-0.5,0.1-1,0.2-1.6,0.2h-3.1v-7.7h3.2c0.6,0,1.2,0.1,1.6,0.2c0.5,0.1,0.9,0.2,1.4,0.2c1.5,0,2.3-0.8,2.3-2.3V23.8h8.9
	c0.3,0,0.4,0.1,0.4,0.4v13.2c0,1.5,0.8,2.3,2.3,2.3c0.5,0,0.9-0.1,1.4-0.2c0.5-0.1,1-0.2,1.6-0.2h3.2v7.7h-3.2
	c-0.6,0-1.2-0.1-1.6-0.2c-0.5-0.1-0.9-0.2-1.4-0.2c-0.6,0-1.1,0.3-1.6,0.8c-0.5,0.5-0.7,1-0.7,1.5v12.7c0,1.4,0.5,2.6,1.6,3.6
	c1.1,1,2.7,1.5,4.7,1.5h3.9c0.3,0,0.4,0.1,0.4,0.4V75.2z">
	</path>
	<path d="M111.3,75.2h-9.4V39.8c0-0.3,0.1-0.4,0.4-0.4h8.6c0.3,0,0.4,0.1,0.4,0.4V75.2z M112.6,35h-12V23.8h12V35z">
	</path>
	<path d="M143,74.8c0,0.3-0.1,0.4-0.4,0.4h-9v-51c0-0.3,0.1-0.4,0.4-0.4h9V74.8z">
	</path>
	<path d="M185.8,52.2c0-0.9-0.3-1.5-1-2c-1-0.8-1.6-1.3-1.8-1.5c-0.7-1-2.2-1.5-4.5-1.5c-2.5,0-4,0.5-4.5,1.5
	c-0.2,0.3-0.7,0.9-1.7,1.5c-0.7,0.5-1,1.2-1,2c0,1.5,0.8,2.2,2.3,2.2h9.9C185,54.4,185.8,53.7,185.8,52.2 M194.3,59.6h-20.8
	c-1.5,0-2.3,0.7-2.3,2.2c0,0.7,0.3,1.4,0.8,1.9c1,0.9,1.6,1.6,1.9,2.1c0.7,1.1,2.3,1.7,4.6,1.7c2.7,0,4.5-0.9,5.1-2.8
	c0.2-0.7,0.9-1,2.1-1h8.2c-1.7,8.3-6.9,12.4-15.4,12.4c-5.2,0-9.1-1.3-11.6-4c-2.8-3-4.2-7.9-4.2-14.7c0-12.6,5.3-18.8,15.8-18.8
	c5.4,0,9.4,1.5,11.9,4.4C193.4,46.3,194.7,51.9,194.3,59.6">
	</path>
</svg>